<svg width="32" height="32" viewBox="0 0 32 32" fill="none" xmlns="http://www.w3.org/2000/svg">
<path fill-rule="evenodd" clip-rule="evenodd" d="M12.9 9.8C11.1879 9.8 9.8 11.1879 9.8 12.9V17.1065L11.9351 14.8494C12.437 14.3134 13.1306 14 13.8677 14C14.6058 14 15.3003 14.3143 15.8024 14.8515L17.4807 16.648L18.2556 15.8186C18.7576 15.2813 19.4521 14.9668 20.1903 14.9668C20.8691 14.9668 21.5108 15.2326 22 15.693V12.9C22 11.1879 20.6121 9.8 18.9 9.8H12.9ZM12.9 22C11.4406 22 10.2168 20.9916 9.88731 19.6336L13.2444 16.0845L13.2481 16.0806C13.4235 15.8929 13.6479 15.8 13.8677 15.8C14.0875 15.8 14.3119 15.893 14.4874 16.0806L16.8125 18.5695C16.819 18.5766 16.8255 18.5836 16.8322 18.5906L18.6294 20.5144C18.9688 20.8776 19.5383 20.897 19.9015 20.5576C20.2647 20.2183 20.2841 19.6488 19.9448 19.2856L18.7123 17.9663L19.5708 17.0474C19.7462 16.8597 19.9705 16.7668 20.1903 16.7668C20.4074 16.7668 20.6291 16.8575 20.8037 17.0409L22 18.3845V18.9C22 20.6121 20.6121 22 18.9 22H12.9ZM8 12.9C8 10.1938 10.1938 8 12.9 8H18.9C21.6062 8 23.8 10.1938 23.8 12.9V18.9C23.8 21.6062 21.6062 23.8 18.9 23.8H12.9C10.1938 23.8 8 21.6062 8 18.9V12.9ZM17.6778 12.2333C17.1255 12.2333 16.6778 12.681 16.6778 13.2333C16.6778 13.7856 17.1255 14.2333 17.6778 14.2333H17.6867C18.239 14.2333 18.6867 13.7856 18.6867 13.2333C18.6867 12.681 18.239 12.2333 17.6867 12.2333H17.6778Z" fill="#182C50"/>
</svg>
