<svg width="32" height="32" viewBox="0 0 32 32" fill="none" xmlns="http://www.w3.org/2000/svg">
<path d="M11 9H25V11H11V9ZM11 17V15H25V17H11ZM8 8.5C8.39782 8.5 8.77936 8.65804 9.06066 8.93934C9.34196 9.22064 9.5 9.60218 9.5 10C9.5 10.3978 9.34196 10.7794 9.06066 11.0607C8.77936 11.342 8.39782 11.5 8 11.5C7.60218 11.5 7.22064 11.342 6.93934 11.0607C6.65804 10.7794 6.5 10.3978 6.5 10C6.5 9.60218 6.65804 9.22064 6.93934 8.93934C7.22064 8.65804 7.60218 8.5 8 8.5ZM8 14.5C8.39782 14.5 8.77936 14.658 9.06066 14.9393C9.34196 15.2206 9.5 15.6022 9.5 16C9.5 16.3978 9.34196 16.7794 9.06066 17.0607C8.77936 17.342 8.39782 17.5 8 17.5C7.60218 17.5 7.22064 17.342 6.93934 17.0607C6.65804 16.7794 6.5 16.3978 6.5 16C6.5 15.6022 6.65804 15.2206 6.93934 14.9393C7.22064 14.658 7.60218 14.5 8 14.5ZM11 23V21H25V23H11ZM8 20.5C8.39782 20.5 8.77936 20.658 9.06066 20.9393C9.34196 21.2206 9.5 21.6022 9.5 22C9.5 22.3978 9.34196 22.7794 9.06066 23.0607C8.77936 23.342 8.39782 23.5 8 23.5C7.60218 23.5 7.22064 23.342 6.93934 23.0607C6.65804 22.7794 6.5 22.3978 6.5 22C6.5 21.6022 6.65804 21.2206 6.93934 20.9393C7.22064 20.658 7.60218 20.5 8 20.5Z" fill="#182C50"/>
</svg>
