<svg width="32" height="32" viewBox="0 0 32 32" fill="none" xmlns="http://www.w3.org/2000/svg">
<path fill-rule="evenodd" clip-rule="evenodd" d="M20.1057 8.00018C18.8865 7.98958 17.7119 8.45828 16.8349 9.30531L15.5356 10.5969C15.1831 10.9474 15.1815 11.5172 15.5319 11.8697C15.8824 12.2222 16.4522 12.2239 16.8047 11.8734L18.0898 10.5958C18.6268 10.0793 19.3449 9.79363 20.0901 9.80011C20.8374 9.8066 21.5522 10.1063 22.0806 10.6348C22.609 11.1632 22.9087 11.878 22.9152 12.6252C22.9217 13.3701 22.6363 14.0877 22.1204 14.6247L19.8762 16.8689C19.5872 17.1579 19.2395 17.3814 18.8566 17.5243C18.4737 17.6671 18.0646 17.7259 17.6569 17.6967C17.2493 17.6675 16.8527 17.551 16.4941 17.3551C16.1355 17.1591 15.8231 16.8883 15.5784 16.5611C15.2806 16.1631 14.7166 16.0818 14.3186 16.3795C13.9206 16.6772 13.8393 17.2412 14.137 17.6393C14.5364 18.1732 15.0459 18.615 15.6311 18.9347C16.2162 19.2543 16.8633 19.4445 17.5284 19.4921C18.1934 19.5397 18.861 19.4438 19.4857 19.2107C20.1104 18.9777 20.6778 18.6129 21.1492 18.1414L23.3991 15.8916L23.41 15.8804C24.2571 15.0034 24.7258 13.8288 24.7152 12.6096C24.7046 11.3904 24.2155 10.2241 23.3534 9.36195C22.4912 8.49981 21.325 8.01077 20.1057 8.00018ZM15.187 13.2009C14.5219 13.1533 13.8543 13.2493 13.2296 13.4823C12.6049 13.7153 12.0375 14.0801 11.5662 14.5516L9.31627 16.8015L9.30531 16.8127C8.45828 17.6897 7.98958 18.8642 8.00018 20.0834C8.01077 21.3026 8.49981 22.4689 9.36195 23.3311C10.2241 24.1932 11.3904 24.6823 12.6096 24.6929C13.8288 24.7034 15.0034 24.2348 15.8804 23.3877L15.8916 23.3768L17.1741 22.0943C17.5255 21.7428 17.5255 21.1729 17.1741 20.8215C16.8226 20.47 16.2527 20.47 15.9013 20.8215L14.6247 22.0981C14.0877 22.614 13.3701 22.8994 12.6252 22.8929C11.878 22.8864 11.1632 22.5867 10.6347 22.0583C10.1063 21.5299 9.8066 20.8151 9.80011 20.0678C9.79364 19.323 10.079 18.6053 10.595 18.0683L12.8392 15.8242C13.1281 15.5351 13.4758 15.3116 13.8587 15.1688C14.2416 15.026 14.6508 14.9671 15.0584 14.9963C15.466 15.0255 15.8626 15.1421 16.2212 15.338C16.5799 15.5339 16.8922 15.8047 17.137 16.132C17.4347 16.53 17.9987 16.6113 18.3967 16.3136C18.7948 16.0159 18.8761 15.4518 18.5784 15.0538C18.179 14.5199 17.6694 14.0781 17.0843 13.7584C16.4991 13.4387 15.8521 13.2486 15.187 13.2009Z" fill="#182C50"/>
</svg>
