<svg width="24" height="24" viewBox="0 0 24 24" fill="none" xmlns="http://www.w3.org/2000/svg">
<path d="M3 12.9977H9V10.9977H3V1.84366C3.00001 1.75678 3.02267 1.6714 3.06573 1.59593C3.1088 1.52047 3.17078 1.45753 3.24558 1.41332C3.32037 1.36911 3.4054 1.34515 3.49227 1.34381C3.57915 1.34247 3.66487 1.36379 3.741 1.40566L22.203 11.5597C22.2814 11.6028 22.3468 11.6662 22.3923 11.7433C22.4378 11.8203 22.4618 11.9082 22.4618 11.9977C22.4618 12.0872 22.4378 12.175 22.3923 12.252C22.3468 12.3291 22.2814 12.3925 22.203 12.4357L3.741 22.5897C3.66487 22.6315 3.57915 22.6529 3.49227 22.6515C3.4054 22.6502 3.32037 22.6262 3.24558 22.582C3.17078 22.5378 3.1088 22.4749 3.06573 22.3994C3.02267 22.3239 3.00001 22.2385 3 22.1517V12.9977Z" fill="#576BCD"/>
</svg>
